<?xml version="1.0" encoding="UTF-8" standalone="no"?>
<!-- Created with Inkscape (http://www.inkscape.org/) -->

<svg
   width="128"
   height="128"
   viewBox="0 0 128 128"
   version="1.1"
   id="svg1"
   xml:space="preserve"
   inkscape:version="1.4.2 (ebf0e940d0, 2025-05-08)"
   sodipodi:docname="logo.svg"
   inkscape:export-filename="logo-plain.svg"
   inkscape:export-xdpi="96"
   inkscape:export-ydpi="96"
   xmlns:inkscape="http://www.inkscape.org/namespaces/inkscape"
   xmlns:sodipodi="http://sodipodi.sourceforge.net/DTD/sodipodi-0.dtd"
   xmlns="http://www.w3.org/2000/svg"
   xmlns:svg="http://www.w3.org/2000/svg"><sodipodi:namedview
     id="namedview1"
     pagecolor="#505050"
     bordercolor="#eeeeee"
     borderopacity="1"
     inkscape:showpageshadow="0"
     inkscape:pageopacity="0"
     inkscape:pagecheckerboard="0"
     inkscape:deskcolor="#d1d1d1"
     inkscape:document-units="px"
     inkscape:zoom="5.6568542"
     inkscape:cx="38.802485"
     inkscape:cy="83.261824"
     inkscape:window-width="1876"
     inkscape:window-height="1025"
     inkscape:window-x="0"
     inkscape:window-y="0"
     inkscape:window-maximized="1"
     inkscape:current-layer="icon" /><defs
     id="defs1" /><g
     inkscape:label="Layer 1"
     inkscape:groupmode="layer"
     id="layer1"><g
       id="icon"
       inkscape:label="icon"
       inkscape:export-filename="icon.png"
       inkscape:export-xdpi="96"
       inkscape:export-ydpi="96"><g
         id="chip"
         inkscape:label="chip"
         style="stroke-width:0;stroke-dasharray:none"><path
           style="stroke-width:8;stroke-dasharray:none;fill:none;stroke:#ffcc00;stroke-linecap:round;paint-order:stroke fill markers"
           d="m 34,8 v 8"
           id="pin1"
           sodipodi:nodetypes="cc"
           inkscape:label="pin1" /><path
           style="stroke-width:8;stroke-dasharray:none;fill:none;stroke:#ffcc00;stroke-linecap:round;paint-order:stroke fill markers"
           d="M 54,8.0000019 V 16.000002"
           id="pin2"
           sodipodi:nodetypes="cc"
           inkscape:label="pin2" /><path
           style="stroke-width:8;stroke-dasharray:none;fill:none;stroke:#ffcc00;stroke-linecap:round;paint-order:stroke fill markers"
           d="M 74.000009,8.0000019 V 16.000002"
           id="pin3"
           sodipodi:nodetypes="cc"
           inkscape:label="pin3" /><path
           style="stroke-width:8;stroke-dasharray:none;fill:none;stroke:#ffcc00;stroke-linecap:round;paint-order:stroke fill markers"
           d="m 93.999992,8 v 8"
           id="pin4"
           sodipodi:nodetypes="cc"
           inkscape:label="pin4" /><path
           style="stroke-width:8;stroke-dasharray:none;fill:none;stroke:#ffcc00;stroke-linecap:round;paint-order:stroke fill markers"
           d="m 120,34.000001 h -8"
           id="pin5"
           sodipodi:nodetypes="cc"
           inkscape:label="pin5" /><path
           style="stroke-width:8;stroke-dasharray:none;fill:none;stroke:#ffcc00;stroke-linecap:round;paint-order:stroke fill markers"
           d="m 120,54.000001 h -8"
           id="pin6"
           sodipodi:nodetypes="cc"
           inkscape:label="pin6" /><path
           style="stroke-width:8;stroke-dasharray:none;fill:none;stroke:#ffcc00;stroke-linecap:round;paint-order:stroke fill markers"
           d="m 120,74.000009 h -8"
           id="pin7"
           sodipodi:nodetypes="cc"
           inkscape:label="pin7" /><path
           style="stroke-width:8;stroke-dasharray:none;fill:none;stroke:#ffcc00;stroke-linecap:round;paint-order:stroke fill markers"
           d="m 120,93.999992 h -8"
           id="pin8"
           sodipodi:nodetypes="cc"
           inkscape:label="pin8" /><path
           style="stroke-width:8;stroke-dasharray:none;fill:none;stroke:#ffcc00;stroke-linecap:round;paint-order:stroke fill markers"
           d="m 94.000009,112 v 8"
           id="pin9"
           sodipodi:nodetypes="cc"
           inkscape:label="pin9" /><path
           style="stroke-width:8;stroke-dasharray:none;fill:none;stroke:#ffcc00;stroke-linecap:round;paint-order:stroke fill markers"
           d="m 74.000026,112 v 8"
           id="pin10"
           sodipodi:nodetypes="cc"
           inkscape:label="pin10" /><path
           style="stroke-width:8;stroke-dasharray:none;fill:none;stroke:#ffcc00;stroke-linecap:round;paint-order:stroke fill markers"
           d="m 54.000017,112 v 8"
           id="pin11"
           sodipodi:nodetypes="cc"
           inkscape:label="pin11" /><path
           style="stroke-width:8;stroke-dasharray:none;fill:none;stroke:#ffcc00;stroke-linecap:round;paint-order:stroke fill markers"
           d="m 34.000017,112 v 8"
           id="pin12"
           sodipodi:nodetypes="cc"
           inkscape:label="pin12" /><path
           style="stroke-width:8;stroke-dasharray:none;fill:none;stroke:#ffcc00;stroke-linecap:round;paint-order:stroke fill markers"
           d="M 16.000002,93.999992 H 8.0000019"
           id="pin13"
           sodipodi:nodetypes="cc"
           inkscape:label="pin13" /><path
           style="stroke-width:8;stroke-dasharray:none;fill:none;stroke:#ffcc00;stroke-linecap:round;paint-order:stroke fill markers"
           d="M 16.000002,74.000009 H 8.0000019"
           id="pin14"
           sodipodi:nodetypes="cc"
           inkscape:label="pin14" /><path
           style="stroke-width:8;stroke-dasharray:none;fill:none;stroke:#ffcc00;stroke-linecap:round;paint-order:stroke fill markers"
           d="M 16.000002,54.000001 H 8.0000019"
           id="pin15"
           sodipodi:nodetypes="cc"
           inkscape:label="pin15" /><path
           style="stroke-width:8;stroke-dasharray:none;fill:none;stroke:#ffcc00;stroke-linecap:round;paint-order:stroke fill markers"
           d="M 16.000002,34.000001 H 8.0000019"
           id="pin16"
           sodipodi:nodetypes="cc"
           inkscape:label="pin16" /><rect
           style="fill:#000000;stroke-width:0;stroke-dasharray:none;fill-opacity:0.5"
           id="shadow"
           width="104"
           height="104"
           x="16"
           y="16"
           rx="16.000002"
           ry="16.000002"
           inkscape:label="shadow" /><rect
           style="fill:#808080;stroke-width:0;stroke-dasharray:none"
           id="package"
           width="104"
           height="104"
           x="12.000001"
           y="12.000001"
           rx="16.000002"
           ry="16.000002"
           inkscape:label="package" /><circle
           style="fill:#b3b3b3;fill-opacity:1;stroke:none;stroke-width:8;stroke-linecap:round;stroke-dasharray:none;paint-order:stroke fill markers"
           id="dot"
           cx="22"
           cy="22"
           r="2"
           inkscape:label="dot" /></g><path
         id="cog"
         style="display:inline;fill:#282000;fill-opacity:1;stroke:none;stroke-width:8.00001;stroke-dasharray:none;paint-order:stroke fill markers"
         inkscape:label="cog"
         d="M 47.818359 18 L 50.361328 20.630859 C 47.830237 18.024948 43.989727 20.210837 43.931641 20.244141 L 43.927734 20.246094 L 36.144531 24.740234 C 36.106488 24.762299 32.281781 26.992617 33.255859 30.486328 L 33.257812 30.498047 L 33.263672 30.513672 L 36.291016 41.099609 C 33.755028 44.164957 31.716606 47.658467 30.302734 51.455078 L 19.623047 54.126953 C 16.073152 55.021138 16.072266 59.507721 16.072266 59.507812 L 16.072266 68.492188 C 16.072266 68.492279 16.073278 72.985361 19.630859 73.875 L 30.302734 76.544922 C 31.716606 80.341412 33.755028 83.833445 36.291016 86.898438 L 33.263672 97.484375 L 33.257812 97.501953 C 33.257633 97.502589 33.257991 97.50327 33.257812 97.503906 C 32.269112 101.02109 36.144531 103.25977 36.144531 103.25977 L 43.927734 107.75391 C 43.927734 107.75391 43.931579 107.75582 43.931641 107.75586 C 43.953413 107.7684 47.82009 109.98943 50.363281 107.36719 L 47.818359 110 L 50.367188 107.36523 L 58.019531 99.451172 C 59.964687 99.777081 61.962283 99.945313 64 99.945312 C 66.037713 99.945312 68.035313 99.777081 69.980469 99.451172 L 77.630859 107.36328 L 77.632812 107.36523 L 80.181641 110 L 77.636719 107.36719 C 80.159522 109.96841 83.985855 107.80302 84.068359 107.75586 L 91.855469 103.25977 C 91.855469 103.25977 95.730889 101.02109 94.742188 97.503906 L 94.742188 97.501953 L 94.736328 97.484375 L 91.708984 86.898438 C 94.245149 83.833445 96.283273 80.341412 97.697266 76.544922 L 108.37109 73.875 C 111.92871 72.985352 111.92773 68.492188 111.92773 68.492188 L 111.92773 59.507812 C 111.92773 59.507813 111.92871 55.014649 108.37109 54.125 L 97.697266 51.455078 C 96.283273 47.658406 94.245149 44.164957 91.708984 41.099609 L 94.736328 30.513672 L 94.742188 30.498047 L 94.744141 30.486328 C 95.720526 26.984137 91.875035 24.751558 91.855469 24.740234 L 84.072266 20.246094 C 84.072175 20.246042 84.068504 20.244224 84.068359 20.244141 C 84.01404 20.212982 80.171032 18.023649 77.638672 20.630859 L 80.181641 18 L 77.630859 20.636719 L 69.980469 28.548828 C 68.035313 28.223033 66.037713 28.054688 64 28.054688 C 61.962283 28.054688 59.964687 28.223025 58.019531 28.548828 L 50.369141 20.636719 L 47.818359 18 z M 64 36 A 27.999999 27.999997 0 0 1 92 64 A 27.999999 27.999997 0 0 1 64 92 A 27.999999 27.999997 0 0 1 36 64 A 27.999999 27.999997 0 0 1 64 36 z " /><path
         id="Y"
         style="fill:none;stroke:#282000;stroke-width:8;stroke-linecap:round;stroke-dasharray:none"
         d="M 64.000002,62.00022 50.000001,48.000008 m 13.999997,38.000215 4e-6,-24.000003 m -4e-6,0 14.000001,-14.000212 m -13.999997,38.000215 -4e-6,-24.000003"
         inkscape:label="Y"
         sodipodi:nodetypes="cccccccc" /></g></g></svg>
