<svg width="16" height="16" viewBox="0 0 16 16" fill="none" xmlns="http://www.w3.org/2000/svg">
<path d="M8 10C6.89563 10 6 9.10402 6 8C6 6.8953 6.89563 6 8 6C9.10437 6 10 6.89598 10 8C10 9.10402 9.10437 10 8 10Z" fill="black"/>
<path fill-rule="evenodd" clip-rule="evenodd" d="M0 2C0 0.895431 0.895431 0 2 0H3V1C3 1.55228 3.44772 2 4 2C4.55228 2 5 1.55228 5 1V0H7V1C7 1.55228 7.44772 2 8 2C8.55228 2 9 1.55228 9 1V0H11V1C11 1.55228 11.4477 2 12 2C12.5523 2 13 1.55228 13 1V0H14C15.1046 0 16 0.895431 16 2V14C16 15.1046 15.1046 16 14 16H13V15C13 14.4477 12.5523 14 12 14C11.4477 14 11 14.4477 11 15V16H9V15C9 14.4477 8.55228 14 8 14C7.44772 14 7 14.4477 7 15V16H5V15C5 14.4477 4.55228 14 4 14C3.44772 14 3 14.4477 3 15V16H2C0.895431 16 0 15.1046 0 14V2ZM5.23026 4.85673C5.04181 5.76259 4.56253 6.58395 3.86386 7.19836C3.37871 7.625 3.37871 8.375 3.86386 8.80164C4.56253 9.41605 5.04181 10.2374 5.23026 11.1433C5.36113 11.7723 6.01759 12.1473 6.6336 11.9449C7.52072 11.6535 8.47928 11.6535 9.3664 11.9449C9.98241 12.1473 10.6389 11.7723 10.7697 11.1433C10.9582 10.2374 11.4375 9.41605 12.1361 8.80164C12.6213 8.375 12.6213 7.625 12.1361 7.19836C11.4375 6.58395 10.9582 5.76259 10.7697 4.85673C10.6389 4.2277 9.98241 3.85271 9.3664 4.05509C8.47928 4.34654 7.52072 4.34654 6.6336 4.05509C6.01759 3.85271 5.36113 4.2277 5.23026 4.85673ZM8 10C6.89563 10 6 9.10402 6 8C6 6.8953 6.89563 6 8 6C9.10437 6 10 6.89598 10 8C10 9.10402 9.10437 10 8 10Z" fill="black"/>
</svg>
