<?xml version="1.0" encoding="UTF-8" standalone="no"?>
<!-- Created with Inkscape (http://www.inkscape.org/) -->

<svg
   width="96"
   height="96"
   viewBox="0 0 96 96"
   version="1.1"
   id="svg1"
   xml:space="preserve"
   xmlns="http://www.w3.org/2000/svg"
   xmlns:svg="http://www.w3.org/2000/svg"><defs
     id="defs1" /><g
     id="layer1"><g
       id="icon"><path
         id="cog"
         style="display:inline;fill:#000000;fill-opacity:1;stroke:none;stroke-width:8.00001;stroke-dasharray:none;paint-order:stroke fill markers"
         d="m 31.818314,2 2.542969,2.630859 C 31.830192,2.024948 27.989682,4.210837 27.931596,4.244141 l -0.0039,0.002 -7.783203,4.49414 c -0.03804,0.02206 -3.86275,2.252383 -2.888672,5.746094 l 0.002,0.01172 0.0059,0.01563 3.027344,10.585937 c -2.535988,3.065348 -4.57441,6.558858 -5.988282,10.355469 L 3.623096,38.127006 c -3.549895,0.894185 -3.550781,5.380768 -3.550781,5.380859 v 8.984376 c 0,9.1e-5 0.001,4.493173 3.558593,5.382812 l 10.671875,2.669922 c 1.413872,3.79649 3.452294,7.288523 5.988282,10.353516 l -3.027344,10.585937 -0.0059,0.01758 c -1.79e-4,6.36e-4 1.79e-4,0.0013 0,0.002 -0.9887,3.517182 2.886719,5.755862 2.886719,5.755862 l 7.783203,4.49414 c 0,0 0.0038,0.002 0.0039,0.002 0.02177,0.0125 3.888449,2.23357 6.43164,-0.38867 L 31.818314,94 l 2.548829,-2.63477 7.652343,-7.914058 c 1.945156,0.325909 3.942752,0.494141 5.980469,0.49414 2.037713,0 4.035313,-0.168231 5.980469,-0.49414 l 7.65039,7.912108 0.002,0.002 2.548829,2.63477 -2.544922,-2.63281 c 2.522803,2.60122 6.349136,0.43583 6.43164,0.38867 l 7.78711,-4.49609 c 0,0 3.87542,-2.23868 2.886719,-5.755864 v -0.002 l -0.0059,-0.01758 -3.027344,-10.585937 c 2.536165,-3.064993 4.574289,-6.557026 5.988282,-10.353516 L 92.371045,57.875 c 3.55762,-0.889648 3.55664,-5.382812 3.55664,-5.382812 v -8.984376 c 0,10e-7 9.8e-4,-4.493163 -3.55664,-5.382812 L 81.697221,35.455078 C 80.283228,31.658406 78.245104,28.164957 75.708939,25.099609 l 3.027344,-10.585937 0.0059,-0.01563 0.002,-0.01172 c 0.976385,-3.502191 -2.869106,-5.73477 -2.888672,-5.746094 l -7.783203,-4.49414 c -9.1e-5,-5.2e-5 -0.0038,-0.0019 -0.0039,-0.002 -0.05432,-0.03116 -3.897327,-2.220492 -6.429687,0.386718 L 64.181596,2 l -2.550782,2.636719 -7.65039,7.912109 c -1.945156,-0.325795 -3.942756,-0.49414 -5.980469,-0.49414 -2.037717,0 -4.035313,0.168337 -5.980469,0.49414 l -7.65039,-7.912109 z m 16.181641,18 a 27.999999,27.999997 0 0 1 28,28 27.999999,27.999997 0 0 1 -28,28 27.999999,27.999997 0 0 1 -28,-28 27.999999,27.999997 0 0 1 28,-28 z" /><path
         id="Y"
         style="fill:none;stroke:#000000;stroke-width:8;stroke-linecap:round;stroke-dasharray:none"
         d="M 48.000002,46.00022 34.000001,32.000008 m 13.999997,38.000215 4e-6,-24.000003 m -4e-6,0 14.000001,-14.000212 m -13.999997,38.000215 -4e-6,-24.000003" /></g></g></svg>
