<?xml version="1.0" encoding="UTF-8" standalone="no"?>
<!-- Created with Inkscape (http://www.inkscape.org/) -->

<svg
   width="128"
   height="128"
   viewBox="0 0 128 128"
   version="1.1"
   id="svg1"
   xml:space="preserve"
   xmlns="http://www.w3.org/2000/svg"
   xmlns:svg="http://www.w3.org/2000/svg"><defs
     id="defs1" /><g
     id="layer1"><g
       id="icon"><path
         id="cog"
         style="display:inline;fill:#000000;fill-opacity:1;stroke:none;stroke-width:8.00001;stroke-dasharray:none;paint-order:stroke fill markers"
         d="m 47.818363,18 -15.564456,8.986326 4.037106,14.113285 c -2.535988,3.065348 -4.574404,6.558856 -5.988276,10.355467 l -14.230472,3.558595 v 17.972654 l 14.230472,3.558592 c 1.413872,3.79649 3.452288,7.288524 5.988276,10.353516 L 32.253907,101.01367 47.818363,110 58.019531,99.451172 c 1.945156,0.325909 3.942754,0.494135 5.980471,0.494135 2.037713,0 4.035311,-0.168226 5.980467,-0.494135 L 80.181641,110 95.746094,101.01367 91.708984,86.898435 c 2.536165,-3.064992 4.57429,-6.557026 5.988283,-10.353516 L 111.92774,72.986327 V 55.013673 L 97.697267,51.455078 C 96.283274,47.658406 94.245149,44.164959 91.708984,41.099611 L 95.746094,26.986326 80.181641,18 69.980469,28.548828 c -1.945156,-0.325795 -3.942754,-0.494143 -5.980467,-0.494143 -2.037717,0 -4.035315,0.16834 -5.980471,0.494143 z M 64.000002,36 A 27.999999,27.999997 0 0 1 92,63.999998 27.999999,27.999997 0 0 1 64.000002,91.999996 27.999999,27.999997 0 0 1 36,63.999998 27.999999,27.999997 0 0 1 64.000002,36 Z" /><path
         id="Y"
         style="fill:none;stroke:#000000;stroke-width:8;stroke-linecap:round;stroke-dasharray:none"
         d="M 64.000002,62.00022 50.000001,48.000008 m 13.999997,38.000215 4e-6,-24.000003 m -4e-6,0 14.000001,-14.000212 m -13.999997,38.000215 -4e-6,-24.000003" /></g></g></svg>
