<?xml version="1.0" encoding="UTF-8" standalone="no"?>
<!-- Created with Inkscape (http://www.inkscape.org/) -->

<svg
   width="128"
   height="128"
   viewBox="0 0 128 128"
   version="1.1"
   id="svg1"
   xml:space="preserve"
   xmlns="http://www.w3.org/2000/svg"
   xmlns:svg="http://www.w3.org/2000/svg"><defs
     id="defs1" /><g
     id="layer1"><g
       id="icon"><g
         id="chip"
         style="stroke-width:0;stroke-dasharray:none"><path
           style="fill:none;stroke:#ffcc00;stroke-width:8;stroke-linecap:round;stroke-dasharray:none;paint-order:stroke fill markers"
           d="m 34,8 v 8"
           id="pin1" /><path
           style="fill:none;stroke:#ffcc00;stroke-width:8;stroke-linecap:round;stroke-dasharray:none;paint-order:stroke fill markers"
           d="M 54,8.0000019 V 16.000002"
           id="pin2" /><path
           style="fill:none;stroke:#ffcc00;stroke-width:8;stroke-linecap:round;stroke-dasharray:none;paint-order:stroke fill markers"
           d="M 74.000009,8.0000019 V 16.000002"
           id="pin3" /><path
           style="fill:none;stroke:#ffcc00;stroke-width:8;stroke-linecap:round;stroke-dasharray:none;paint-order:stroke fill markers"
           d="m 93.999992,8 v 8"
           id="pin4" /><path
           style="fill:none;stroke:#ffcc00;stroke-width:8;stroke-linecap:round;stroke-dasharray:none;paint-order:stroke fill markers"
           d="m 120,34.000001 h -8"
           id="pin5" /><path
           style="fill:none;stroke:#ffcc00;stroke-width:8;stroke-linecap:round;stroke-dasharray:none;paint-order:stroke fill markers"
           d="m 120,54.000001 h -8"
           id="pin6" /><path
           style="fill:none;stroke:#ffcc00;stroke-width:8;stroke-linecap:round;stroke-dasharray:none;paint-order:stroke fill markers"
           d="m 120,74.000009 h -8"
           id="pin7" /><path
           style="fill:none;stroke:#ffcc00;stroke-width:8;stroke-linecap:round;stroke-dasharray:none;paint-order:stroke fill markers"
           d="m 120,93.999992 h -8"
           id="pin8" /><path
           style="fill:none;stroke:#ffcc00;stroke-width:8;stroke-linecap:round;stroke-dasharray:none;paint-order:stroke fill markers"
           d="m 94.000009,112 v 8"
           id="pin9" /><path
           style="fill:none;stroke:#ffcc00;stroke-width:8;stroke-linecap:round;stroke-dasharray:none;paint-order:stroke fill markers"
           d="m 74.000026,112 v 8"
           id="pin10" /><path
           style="fill:none;stroke:#ffcc00;stroke-width:8;stroke-linecap:round;stroke-dasharray:none;paint-order:stroke fill markers"
           d="m 54.000017,112 v 8"
           id="pin11" /><path
           style="fill:none;stroke:#ffcc00;stroke-width:8;stroke-linecap:round;stroke-dasharray:none;paint-order:stroke fill markers"
           d="m 34.000017,112 v 8"
           id="pin12" /><path
           style="fill:none;stroke:#ffcc00;stroke-width:8;stroke-linecap:round;stroke-dasharray:none;paint-order:stroke fill markers"
           d="M 16.000002,93.999992 H 8.0000019"
           id="pin13" /><path
           style="fill:none;stroke:#ffcc00;stroke-width:8;stroke-linecap:round;stroke-dasharray:none;paint-order:stroke fill markers"
           d="M 16.000002,74.000009 H 8.0000019"
           id="pin14" /><path
           style="fill:none;stroke:#ffcc00;stroke-width:8;stroke-linecap:round;stroke-dasharray:none;paint-order:stroke fill markers"
           d="M 16.000002,54.000001 H 8.0000019"
           id="pin15" /><path
           style="fill:none;stroke:#ffcc00;stroke-width:8;stroke-linecap:round;stroke-dasharray:none;paint-order:stroke fill markers"
           d="M 16.000002,34.000001 H 8.0000019"
           id="pin16" /><rect
           style="fill:#000000;fill-opacity:0.5;stroke-width:0;stroke-dasharray:none"
           id="shadow"
           width="104"
           height="104"
           x="16"
           y="16"
           rx="16.000002"
           ry="16.000002" /><rect
           style="fill:#808080;stroke-width:0;stroke-dasharray:none"
           id="package"
           width="104"
           height="104"
           x="12.000001"
           y="12.000001"
           rx="16.000002"
           ry="16.000002" /><circle
           style="fill:#b3b3b3;fill-opacity:1;stroke:none;stroke-width:8;stroke-linecap:round;stroke-dasharray:none;paint-order:stroke fill markers"
           id="dot"
           cx="22"
           cy="22"
           r="2" /></g><path
         id="cog"
         style="display:inline;fill:#282000;fill-opacity:1;stroke:none;stroke-width:8.00001;stroke-dasharray:none;paint-order:stroke fill markers"
         d="m 47.818363,18 -15.564456,8.986326 4.037106,14.113285 c -2.535988,3.065348 -4.574404,6.558856 -5.988276,10.355467 l -14.230472,3.558595 v 17.972654 l 14.230472,3.558592 c 1.413872,3.79649 3.452288,7.288524 5.988276,10.353516 L 32.253907,101.01367 47.818363,110 58.019531,99.451172 c 1.945156,0.325909 3.942754,0.494135 5.980471,0.494135 2.037713,0 4.035311,-0.168226 5.980467,-0.494135 L 80.181641,110 95.746094,101.01367 91.708984,86.898435 c 2.536165,-3.064992 4.57429,-6.557026 5.988283,-10.353516 L 111.92774,72.986327 V 55.013673 L 97.697267,51.455078 C 96.283274,47.658406 94.245149,44.164959 91.708984,41.099611 L 95.746094,26.986326 80.181641,18 69.980469,28.548828 c -1.945156,-0.325795 -3.942754,-0.494143 -5.980467,-0.494143 -2.037717,0 -4.035315,0.16834 -5.980471,0.494143 z M 64.000002,36 A 27.999999,27.999997 0 0 1 92,63.999998 27.999999,27.999997 0 0 1 64.000002,91.999996 27.999999,27.999997 0 0 1 36,63.999998 27.999999,27.999997 0 0 1 64.000002,36 Z" /><path
         id="Y"
         style="fill:none;stroke:#282000;stroke-width:8;stroke-linecap:round;stroke-dasharray:none"
         d="M 64.000002,62.00022 50.000001,48.000008 m 13.999997,38.000215 4e-6,-24.000003 m -4e-6,0 14.000001,-14.000212 m -13.999997,38.000215 -4e-6,-24.000003" /></g></g></svg>
