<?xml version="1.0" encoding="UTF-8" standalone="no"?>
<!-- Created with Inkscape (http://www.inkscape.org/) -->

<svg
   width="128"
   height="128"
   viewBox="0 0 128 128"
   version="1.1"
   id="svg1"
   xml:space="preserve"
   xmlns="http://www.w3.org/2000/svg"
   xmlns:svg="http://www.w3.org/2000/svg"><defs
     id="defs1" /><g
     id="layer1"><g
       id="icon"><g
         id="chip"
         style="stroke-width:0;stroke-dasharray:none"><path
           style="fill:none;stroke:#ffcc00;stroke-width:8;stroke-linecap:round;stroke-dasharray:none;paint-order:stroke fill markers"
           d="m 34,8 v 8"
           id="pin1" /><path
           style="fill:none;stroke:#ffcc00;stroke-width:8;stroke-linecap:round;stroke-dasharray:none;paint-order:stroke fill markers"
           d="M 54,8.0000019 V 16.000002"
           id="pin2" /><path
           style="fill:none;stroke:#ffcc00;stroke-width:8;stroke-linecap:round;stroke-dasharray:none;paint-order:stroke fill markers"
           d="M 74.000009,8.0000019 V 16.000002"
           id="pin3" /><path
           style="fill:none;stroke:#ffcc00;stroke-width:8;stroke-linecap:round;stroke-dasharray:none;paint-order:stroke fill markers"
           d="m 93.999992,8 v 8"
           id="pin4" /><path
           style="fill:none;stroke:#ffcc00;stroke-width:8;stroke-linecap:round;stroke-dasharray:none;paint-order:stroke fill markers"
           d="m 120,34.000001 h -8"
           id="pin5" /><path
           style="fill:none;stroke:#ffcc00;stroke-width:8;stroke-linecap:round;stroke-dasharray:none;paint-order:stroke fill markers"
           d="m 120,54.000001 h -8"
           id="pin6" /><path
           style="fill:none;stroke:#ffcc00;stroke-width:8;stroke-linecap:round;stroke-dasharray:none;paint-order:stroke fill markers"
           d="m 120,74.000009 h -8"
           id="pin7" /><path
           style="fill:none;stroke:#ffcc00;stroke-width:8;stroke-linecap:round;stroke-dasharray:none;paint-order:stroke fill markers"
           d="m 120,93.999992 h -8"
           id="pin8" /><path
           style="fill:none;stroke:#ffcc00;stroke-width:8;stroke-linecap:round;stroke-dasharray:none;paint-order:stroke fill markers"
           d="m 94.000009,112 v 8"
           id="pin9" /><path
           style="fill:none;stroke:#ffcc00;stroke-width:8;stroke-linecap:round;stroke-dasharray:none;paint-order:stroke fill markers"
           d="m 74.000026,112 v 8"
           id="pin10" /><path
           style="fill:none;stroke:#ffcc00;stroke-width:8;stroke-linecap:round;stroke-dasharray:none;paint-order:stroke fill markers"
           d="m 54.000017,112 v 8"
           id="pin11" /><path
           style="fill:none;stroke:#ffcc00;stroke-width:8;stroke-linecap:round;stroke-dasharray:none;paint-order:stroke fill markers"
           d="m 34.000017,112 v 8"
           id="pin12" /><path
           style="fill:none;stroke:#ffcc00;stroke-width:8;stroke-linecap:round;stroke-dasharray:none;paint-order:stroke fill markers"
           d="M 16.000002,93.999992 H 8.0000019"
           id="pin13" /><path
           style="fill:none;stroke:#ffcc00;stroke-width:8;stroke-linecap:round;stroke-dasharray:none;paint-order:stroke fill markers"
           d="M 16.000002,74.000009 H 8.0000019"
           id="pin14" /><path
           style="fill:none;stroke:#ffcc00;stroke-width:8;stroke-linecap:round;stroke-dasharray:none;paint-order:stroke fill markers"
           d="M 16.000002,54.000001 H 8.0000019"
           id="pin15" /><path
           style="fill:none;stroke:#ffcc00;stroke-width:8;stroke-linecap:round;stroke-dasharray:none;paint-order:stroke fill markers"
           d="M 16.000002,34.000001 H 8.0000019"
           id="pin16" /><rect
           style="fill:#000000;fill-opacity:0.5;stroke-width:0;stroke-dasharray:none"
           id="shadow"
           width="104"
           height="104"
           x="16"
           y="16"
           rx="16.000002"
           ry="16.000002" /><rect
           style="fill:#808080;stroke-width:0;stroke-dasharray:none"
           id="package"
           width="104"
           height="104"
           x="12.000001"
           y="12.000001"
           rx="16.000002"
           ry="16.000002" /><circle
           style="fill:#b3b3b3;fill-opacity:1;stroke:none;stroke-width:8;stroke-linecap:round;stroke-dasharray:none;paint-order:stroke fill markers"
           id="dot"
           cx="22"
           cy="22"
           r="2" /></g><path
         id="cog"
         style="display:inline;fill:#282000;fill-opacity:1;stroke:none;stroke-width:8.00001;stroke-dasharray:none;paint-order:stroke fill markers"
         d="m 47.818359,18 2.542969,2.630859 c -2.531091,-2.605911 -6.371601,-0.420022 -6.429687,-0.386718 l -0.0039,0.002 -7.783203,4.49414 c -0.03804,0.02206 -3.86275,2.252383 -2.888672,5.746094 l 0.002,0.01172 0.0059,0.01563 3.027344,10.585937 C 33.755122,44.16501 31.7167,47.65852 30.302828,51.455131 l -10.679687,2.671875 c -3.549895,0.894185 -3.550781,5.380768 -3.550781,5.380859 v 8.984376 c 0,9.1e-5 0.001,4.493173 3.558593,5.382812 l 10.671875,2.669922 c 1.413872,3.79649 3.452294,7.288523 5.988282,10.353516 l -3.027344,10.585937 -0.0059,0.01758 c -1.79e-4,6.36e-4 1.79e-4,0.0013 0,0.002 -0.9887,3.517182 2.886719,5.755862 2.886719,5.755862 l 7.783203,4.49414 c 0,0 0.0038,0.002 0.0039,0.002 0.02177,0.0125 3.888449,2.23357 6.43164,-0.38867 L 47.818359,110 l 2.548829,-2.63477 7.652343,-7.914058 c 1.945156,0.325909 3.942752,0.494141 5.980469,0.49414 2.037713,0 4.035313,-0.168231 5.980469,-0.49414 l 7.65039,7.912108 0.002,0.002 2.548829,2.63477 -2.544922,-2.63281 c 2.522803,2.60122 6.349136,0.43583 6.43164,0.38867 l 7.78711,-4.49609 c 0,0 3.87542,-2.23868 2.886719,-5.755864 v -0.002 l -0.0059,-0.01758 -3.027344,-10.585937 c 2.536165,-3.064993 4.574289,-6.557026 5.988282,-10.353516 L 108.37109,73.875 c 3.55762,-0.889648 3.55664,-5.382812 3.55664,-5.382812 v -8.984376 c 0,10e-7 9.8e-4,-4.493163 -3.55664,-5.382812 L 97.697266,51.455078 C 96.283273,47.658406 94.245149,44.164957 91.708984,41.099609 l 3.027344,-10.585937 0.0059,-0.01563 0.002,-0.01172 c 0.976385,-3.502191 -2.869106,-5.73477 -2.888672,-5.746094 l -7.783203,-4.49414 c -9.1e-5,-5.2e-5 -0.0038,-0.0019 -0.0039,-0.002 -0.05432,-0.03116 -3.897327,-2.220492 -6.429687,0.386718 L 80.181641,18 l -2.550782,2.636719 -7.65039,7.912109 C 68.035313,28.223033 66.037713,28.054688 64,28.054688 c -2.037717,0 -4.035313,0.168337 -5.980469,0.49414 l -7.65039,-7.912109 z M 64,36 A 27.999999,27.999997 0 0 1 92,64 27.999999,27.999997 0 0 1 64,92 27.999999,27.999997 0 0 1 36,64 27.999999,27.999997 0 0 1 64,36 Z" /><path
         id="Y"
         style="fill:none;stroke:#282000;stroke-width:8;stroke-linecap:round;stroke-dasharray:none"
         d="M 64.000002,62.00022 50.000001,48.000008 m 13.999997,38.000215 4e-6,-24.000003 m -4e-6,0 14.000001,-14.000212 m -13.999997,38.000215 -4e-6,-24.000003" /></g></g></svg>
